<svg version="1.0" xmlns="http://www.w3.org/2000/svg" width="362.667" height="186.667" viewBox="0 0 272 140"><path d="m145 49.7-3.3 2.7.6 15.5c.6 17.4 1.9 23.9 9.3 46.6 5.7 17.3 7.8 19.9 15.6 19.9 16.4-.1 32.3-15 32.3-30.4-.1-11.5-7-19.6-17.7-20.7-10.8-1.1-17.6 3.8-19.9 14.4l-1.2 5.8-1.8-4c-3.2-7.4-5-18.7-5.6-35.8-.6-16.6-.6-16.7-2.9-16.7-1.2 0-3.7 1.2-5.4 2.7zm40.7 47.5c2.6 2.9 4.3 6.2 4.3 8.4 0 4.4-12.7 15.4-17.8 15.4-2.2 0-2.3-.3-1.7-4.8 1.3-9.6 3.4-14.9 7-18.1 4.2-3.7 5.5-3.8 8.2-.9zM23.4 60.5c-3.7 3.7-2.9 6.7 1.9 7.9 6.9 1.7 10.1-3.1 5.3-7.9-3.1-3.1-4.1-3.1-7.2 0zm36.1 8.3c-11 7-15.8 14.4-15.8 24.5 0 6.6 1.8 9.9 7.4 13.2 2.8 1.6 5.6 2.1 15.7 2.4 8.9.2 12.2.6 12.2 1.6 0 2-5.3 8.1-11.4 13.1-5.9 4.9-6.2 5.4-4.6 8.5 1.3 2.3 5.9 2.5 9.8.5 4.5-2.3 13.1-12.2 15.9-18.2 2.3-5 2.4-6.1 1.4-9.4-1.7-5.9-5.4-7.1-19.9-6.8-13.2.3-15.2-.4-15.2-5.3 0-6.5 3.2-9.7 12.8-13 5.7-2 10.2-5.3 10.2-7.5 0-2.1-6.9-7.4-9.8-7.4-1.5 0-5.4 1.7-8.7 3.8zm66.4 4.5c-.8 1.7-.6 4.5.5 10.6 2.7 14.1-1 31-7.8 35.5-4 2.6-7 2-10.5-1.9-5.6-6.4-7.5-17.3-5.7-31.7.9-6.7.8-6.7-1.8-7.9-2.3-1.1-3-1-5.4.8l-2.7 2 .1 14.4c.1 12.1.4 15.4 2.3 20.7 2.8 8.3 6.4 13.8 10.4 16.2 17.3 10.6 33.7-10.3 33.7-42.9 0-14-2-18.1-8.6-18.1-2.6 0-3.7.5-4.5 2.3zm-96.4 9.3c-1.6.8-3.3 2.1-3.7 2.7-1.3 2.1-.8 27.8.7 35 2.4 11.4 6.8 16.1 12.8 13.8 4.8-1.9 4.6-7.6-1.3-31.1-1.6-6.3-3.2-13.9-3.6-16.8-.3-2.8-.9-5.2-1.3-5.2-.3 0-1.9.7-3.6 1.6zM229 84.4c-16.1 3.6-26.3 15.1-26.2 29.7.1 17.8 13.9 25.6 30.5 17.2 9.5-4.8 16.8-13.9 18.3-23 1.4-9-4.2-21-11.1-23.9-4-1.6-4.2-1.6-11.5 0zm10 12.5c1.4 2.7 1.3 9.6-.3 13.4-1.6 3.6-8.5 10.3-12.3 11.7-10.7 4.1-16.3-4.7-8.9-14.1 7.9-10.2 18.9-15.8 21.5-11z" fill="#2f3233"/></svg>